<svg width="1440" height="339" viewBox="0 0 1440 339" fill="none" xmlns="http://www.w3.org/2000/svg">
<path d="M178.324 335H99.9258L49.125 236.738L28.5586 249.043V335H-41.2266V78.0078H28.5586V189.629C31.4883 184.004 34.8281 178.379 38.5781 172.754C42.4453 167.129 46.1953 161.797 49.8281 156.758L103.793 78.0078H179.73L98.6953 193.145L178.324 335ZM417.57 78.0078V232.695C417.57 254.258 413.468 273.008 405.265 288.945C397.062 304.766 384.757 317.012 368.351 325.684C351.945 334.238 331.378 338.516 306.652 338.516C271.261 338.516 244.249 329.434 225.616 311.27C206.984 293.105 197.667 267.441 197.667 234.277V78.0078H267.452V228.828C267.452 246.992 270.851 260.176 277.648 268.379C284.445 276.582 294.464 280.684 307.706 280.684C317.198 280.684 324.933 278.926 330.909 275.41C336.886 271.777 341.222 266.094 343.917 258.359C346.73 250.625 348.136 240.664 348.136 228.477V78.0078H417.57ZM235.284 28.6133C235.284 19.0039 238.155 11.9727 243.898 7.51953C249.64 3.06641 256.73 0.839844 265.167 0.839844C273.253 0.839844 280.284 3.06641 286.261 7.51953C292.355 11.9727 295.402 19.0039 295.402 28.6133C295.402 37.8711 292.355 44.7852 286.261 49.3555C280.284 53.8086 273.253 56.0352 265.167 56.0352C256.73 56.0352 249.64 53.8086 243.898 49.3555C238.155 44.7852 235.284 37.8711 235.284 28.6133ZM319.484 28.6133C319.484 19.0039 322.355 11.9727 328.097 7.51953C333.956 3.06641 341.163 0.839844 349.718 0.839844C357.921 0.839844 365.011 3.06641 370.988 7.51953C377.081 11.9727 380.128 19.0039 380.128 28.6133C380.128 37.8711 377.081 44.7852 370.988 49.3555C365.011 53.8086 357.921 56.0352 349.718 56.0352C341.163 56.0352 333.956 53.8086 328.097 49.3555C322.355 44.7852 319.484 37.8711 319.484 28.6133ZM532.713 335H464.334V78.0078H616.209V133.73H532.713V182.773H609.705V238.496H532.713V335ZM719.576 335H651.197V78.0078H803.072V133.73H719.576V182.773H796.568V238.496H719.576V335ZM1082.75 335H991.692L897.825 153.945H896.243C896.829 159.453 897.356 166.074 897.825 173.809C898.294 181.543 898.704 189.453 899.055 197.539C899.407 205.508 899.583 212.715 899.583 219.16V335H838.059V78.0078H928.763L1022.28 256.602H1023.33C1022.98 250.977 1022.63 244.473 1022.28 237.09C1021.93 229.59 1021.58 222.031 1021.22 214.414C1020.99 206.797 1020.87 200.059 1020.87 194.199V78.0078H1082.75V335ZM1283.67 335H1131.09V78.0078H1283.67V133.73H1200.53V174.16H1277.52V229.883H1200.53V278.398H1283.67V335ZM1405.67 78.0078C1428.99 78.0078 1448.39 80.8789 1463.85 86.6211C1479.32 92.2461 1490.93 100.684 1498.66 111.934C1506.51 123.184 1510.44 137.188 1510.44 153.945C1510.44 164.375 1508.68 173.867 1505.16 182.422C1501.65 190.977 1496.61 198.652 1490.05 205.449C1483.6 212.129 1475.87 217.988 1466.84 223.027L1541.73 335H1462.98L1408.48 241.484H1390.91V335H1321.47V78.0078H1405.67ZM1404.62 130.566H1390.91V189.277H1403.91C1414.58 189.277 1423.31 186.934 1430.1 182.246C1436.9 177.559 1440.3 169.18 1440.3 157.109C1440.3 148.789 1437.49 142.285 1431.86 137.598C1426.24 132.91 1417.16 130.566 1404.62 130.566Z" fill="#002B64" fill-opacity="0.03"/>
</svg>
